<svg xmlns="http://www.w3.org/2000/svg" viewBox="0 0 18.136 18.136"><path d="M16.28 0H1.856C.83 0 0 .83 0 1.856V16.28c0 1.026.83 1.855 1.855 1.855H16.28c1.025 0 1.856-.828 1.856-1.854V1.856C18.136.83 17.306 0 16.28 0zm-5.833 3.063h.883v2.785c0 .535.017.52.035.586.02.07.083.238.29.238.22 0 .28-.176.298-.25.014-.066.03-.053.03-.61V3.06h.882v4.18h-.894l.012-.21-.272-.113c-.07.14-.15.24-.247.31-.1.068-.21.103-.342.103-.15 0-.275-.033-.37-.098-.09-.063-.155-.14-.197-.24-.046-.11-.075-.23-.086-.346-.013-.136-.02-.415-.02-.83V3.062zM7.38 4.8c0-.435.036-.772.106-1.01.066-.222.183-.396.358-.53.178-.14.413-.208.7-.208.243 0 .452.048.623.138.166.088.294.203.38.338.09.142.152.287.185.433.034.153.05.4.05.73v.737c0 .432-.016.747-.047.94-.03.18-.096.35-.195.505-.1.153-.222.267-.38.34-.16.078-.352.118-.566.118-.244 0-.45-.034-.617-.104-.154-.062-.272-.152-.354-.273-.084-.126-.146-.28-.183-.46-.04-.195-.06-.497-.06-.9V4.8zM5.313 1.575l.718 2.31c.125-.603.367-1.44.56-2.31h.65L6.404 4.87l-.006.027V7.24h-.763V4.898l-.006-.025-.967-3.298h.65zM15.708 14.5c-.114 1.04-1.037 1.893-2.072 1.963-3.048.13-6.087.13-9.134 0-1.036-.07-1.958-.922-2.073-1.962-.114-1.645-.114-3.262 0-4.906.113-1.04 1.036-1.89 2.072-1.963 3.047-.13 6.086-.13 9.134 0 1.036.074 1.958.924 2.072 1.964.114 1.644.114 3.26 0 4.907zM8.58 6.83c.13 0 .23-.077.274-.21.02-.06.046-.177.046-.493v-1.81c0-.367-.02-.485-.043-.552-.045-.136-.144-.215-.273-.215-.127 0-.227.076-.274.21-.024.066-.048.187-.048.556v1.76c0 .347.025.466.047.533.045.14.144.22.27.22zM3.618 9.91h.863v4.851h.904V9.91h.865v-.92H3.616v.92zm4.275 3.195c0 .52-.015.65-.027.705-.03.135-.14.217-.29.217-.146 0-.25-.078-.285-.207-.015-.055-.03-.184-.03-.68v-2.757h-.857v3.004c0 .396.006.66.018.79.013.12.044.237.092.348.043.1.108.177.2.236.087.062.204.09.345.09.12 0 .226-.03.318-.093.095-.064.178-.166.246-.3l.272.065-.012.244h.868v-4.383h-.855v2.722zm3.786-2.5c-.047-.093-.115-.162-.205-.215-.093-.053-.207-.078-.338-.078-.11 0-.21.027-.304.086-.096.062-.187.153-.27.28l-.26.404V8.99h-.856v5.772h.808l.05-.257.07-.358.19.308c.084.138.177.24.275.306.093.063.19.095.296.095.15 0 .276-.053.386-.156.114-.113.185-.238.216-.39.034-.168.05-.434.05-.416v-2.29c0 .01.035-.23-.016-.702-.01-.1-.04-.196-.092-.297zm-.745 2.543c0 .41-.02.535-.038.6-.04.14-.14.223-.277.223-.132 0-.233-.077-.275-.214-.02-.062-.042-.184-.042-.56v-1.16c0-.39.02-.507.04-.563.038-.13.14-.207.27-.207.136 0 .238.082.28.22.02.062.045.184.045.552v1.11h-.002zm2.34-.446H14.75v-.476c0-.43-.04-.925-.12-1.156-.074-.223-.2-.395-.388-.528-.18-.128-.42-.195-.706-.195-.233 0-.44.054-.618.163s-.3.262-.378.47c-.082.214-.125.52-.125 1.063v1.345c0 .173.02.43.056.597.037.162.102.312.194.447.087.127.214.23.374.305.164.076.358.115.576.115.223 0 .41-.04.55-.113.143-.076.26-.19.355-.343.097-.158.16-.31.186-.445.028-.143.042-.355.042-.63v-.206h-.796v.472c0 .25-.017.413-.052.51-.05.134-.162.212-.31.212-.128 0-.228-.064-.273-.18-.022-.053-.047-.15-.047-.45v-.977h.002zm0-.615v-.495c0-.364.018-.31.034-.358.038-.117.14-.186.284-.186.13 0 .227.075.266.203.016.053.036.003.036.342v.635h-.62v-.14z" fill="#fff"/></svg>